<?xml version="1.0" standalone="no"?><!DOCTYPE svg PUBLIC "-//W3C//DTD SVG 1.1//EN" "http://www.w3.org/Graphics/SVG/1.1/DTD/svg11.dtd"><svg t="1706687648779" class="icon" viewBox="0 0 1024 1024" version="1.1" xmlns="http://www.w3.org/2000/svg" p-id="2391" xmlns:xlink="http://www.w3.org/1999/xlink" width="32" height="32"><path d="M564.34 171.38l76.94 47.12 32.28 19.77 34.59-15.38 82.43-36.66-21 87.73-8.83 36.81L786 338.91 846.37 406l-89.94 7.1-37.73 3-18.94 32.77L654.62 527l-34.55-83.4-14.49-35-37-7.88L480.32 382l68.59-58.61 28.77-24.59-3.94-37.65-9.4-89.73m-46.11-107c-18.77 0-35.79 16.11-33.58 37.28l17.48 166.91-127.58 109c-21.24 18.15-12.45 52.77 14.87 58.59l164.14 34.95 64.26 155a33.7 33.7 0 0 0 60.31 4l84-145.31 167.3-13.2c27.85-2.2 41.08-35.38 22.4-56.14L839.56 290.75l39.13-163.19C884 105.29 866.54 85.92 846 85.92a33.89 33.89 0 0 0-13.78 3l-153.33 68.19-143.11-87.66a33.4 33.4 0 0 0-17.55-5zM267.36 623.38l29.64 30 23.65 23.93 33.12-5.91 41.53-7.4-19.38 37.47-15.45 29.89L376.32 761l19.89 37.21-41.63-6.85-33.2-5.47-23.32 24.26-29.24 30.4-6.35-41.7-5.06-33.27-30.27-14.69-38-18.41 37.7-18.92L257 698.49l4.61-33.33 5.79-41.78m-33.88-118.49a16.36 16.36 0 0 0-16.33 14.17l-19 137.33-123.92 62.19a16.4 16.4 0 0 0 0.2 29.41L199.2 808.5l20.85 137.06a16.38 16.38 0 0 0 16.31 14 16.12 16.12 0 0 0 11.73-5l96.1-99.92L481 877.06a17.77 17.77 0 0 0 2.78 0.23 16.41 16.41 0 0 0 14.35-24.14l-65.36-122.28 63.69-123.14a16.41 16.41 0 0 0-14.45-24 17.24 17.24 0 0 0-3 0.27l-136.48 24.41-97.43-98.63a16.12 16.12 0 0 0-11.58-4.89zM822.7 742.55l-0.05 10.4-0.13 29.44 24.18 16.8 8.54 5.93-9.91 3.17-28 9-8.5 28.19-3 9.95-6.12-8.43-17.2-23.89-29.43 0.62-10.4 0.22 6.15-8.39 17.41-23.74-9.68-27.82-3.43-9.82 9.88 3.26 28 9.22 23.45-17.8 8.28-6.29M862.63 646a16.16 16.16 0 0 0-9.82 3.36l-72.26 54.87-86.17-28.42a16.59 16.59 0 0 0-5.2-0.85 16.38 16.38 0 0 0-15.36 21.76l29.85 85.68L650 855.57a16.35 16.35 0 0 0 13.15 26h0.38l90.71-1.91 53 73.64a16.09 16.09 0 0 0 13.21 6.8 16.26 16.26 0 0 0 15.72-11.63l26.21-86.86L948.82 834a16.35 16.35 0 0 0 4.34-29l-74.51-51.8 0.4-90.73A16.36 16.36 0 0 0 862.63 646z" p-id="2392" fill="#1677ff"></path></svg>