<?xml version="1.0" standalone="no"?><!DOCTYPE svg PUBLIC "-//W3C//DTD SVG 1.1//EN" "http://www.w3.org/Graphics/SVG/1.1/DTD/svg11.dtd"><svg t="1770605637107" class="icon" viewBox="0 0 1024 1024" version="1.1" xmlns="http://www.w3.org/2000/svg" p-id="3363" width="16" height="16" xmlns:xlink="http://www.w3.org/1999/xlink"><path d="M768 938.666667a25.088 25.088 0 0 1-18.090667-7.509334L512 694.442667 274.602667 931.84A25.6 25.6 0 0 1 238.933333 895.658667l256-256a25.429333 25.429333 0 0 1 36.181334 0l256 256a25.429333 25.429333 0 0 1 0 36.181333A24.746667 24.746667 0 0 1 768 938.666667zM512 391.338667a25.6 25.6 0 0 1-18.090667-7.509334l-256-256a25.6 25.6 0 0 1 36.693334-35.669333L512 329.557333 749.397333 92.16A25.6 25.6 0 0 1 785.066667 128.341333l-256 256a25.6 25.6 0 0 1-17.066667 6.997334zM959.146667 537.6H64.853333a25.6 25.6 0 1 1 0-51.2h894.293334a25.6 25.6 0 0 1 0 51.2z" fill="#1296db" p-id="3364"></path><path d="M911.872 615.936m-34.133333 0l-731.306667 0q-34.133333 0-34.133333-34.133333l0-82.602667q0-34.133333 34.133333-34.133333l731.306667 0q34.133333 0 34.133333 34.133333l0 82.602667q0 34.133333-34.133333 34.133333Z" fill="#1296db" opacity=".3" p-id="3365"></path></svg>