<svg xmlns="http://www.w3.org/2000/svg" xmlns:xlink="http://www.w3.org/1999/xlink" x="0px" y="0px" viewBox="0 0 16 16"
  style="enable-background:new 0 0 16 16;" xml:space="preserve" width="16px" height="16px">
  <style type="text/css">
    .st0 {
      fill: #FFFFFF;
    }

    .st1 {
      font-family: 'AaXiaoliwoNon-CommercialUse';
    }

    .st2 {
      font-size: 6px;
    }
  </style>
  <path d="M4.5,5.2c0.6-0.6,1.2-1.4,1.3-2H3.3C3.4,3.9,4,4.6,4.5,5.2z" />
  <path d="M8.2,6.9c0.2,0,0.3-0.1,0.3-0.3V0.2c0-0.2-0.1-0.3-0.3-0.3h-8C0-0.1-0.1,0-0.1,0.2v8c0,0.2,0.1,0.3,0.3,0.3h6.4
	c0.2,0,0.3-0.1,0.3-0.3V7.7c0-0.4,0.4-0.8,0.8-0.8H8.2z" />
  <path
    d="M15.8,7.5h-8c-0.2,0-0.3,0.1-0.3,0.3v8c0,0.2,0.1,0.3,0.3,0.3h8c0.2,0,0.3-0.1,0.3-0.3v-8C16.1,7.6,16,7.5,15.8,7.5z" />
  <path d="M9.9,1.6c2.2,0,4.1,1.6,4.5,3.8l-0.5-0.5c-0.1-0.1-0.3-0.1-0.4,0c-0.1,0.1-0.1,0.3,0,0.4l1.1,1c0.1,0.1,0.1,0.1,0.2,0.1h0.1
	c0.1,0,0.1-0.1,0.1-0.1l1.1-1.1C16,5.2,16,5,15.9,4.9c-0.1-0.1-0.3-0.1-0.4,0l-0.6,0.6c-0.3-2.5-2.4-4.5-5.1-4.5
	c-0.2,0-0.3,0.1-0.3,0.3S9.7,1.6,9.9,1.6L9.9,1.6z" />
  <path d="M6.7,14.4c-2.5,0-4.6-1.6-5-3.8l0.5,0.5c0.1,0.1,0.2,0.1,0.2,0.1c0.1,0,0.2,0,0.2-0.1c0.1-0.1,0.1-0.3,0-0.4L1.6,9.7
	c0,0-0.1-0.1-0.1-0.1C1.4,9.6,1.3,9.6,1.2,9.6S1.2,9.6,1.1,9.6l-1.1,1.1C0,10.8,0,11,0.1,11.1s0.3,0.1,0.4,0l0.6-0.6
	c0.4,2.5,2.7,4.5,5.6,4.5c0.2,0,0.3-0.1,0.3-0.3S6.8,14.4,6.7,14.4L6.7,14.4z" />
  <text transform="matrix(1 0 0 1 1.1745 6.3319)" class="st0 st1 st2">繁</text>
  <text transform="matrix(1 0 0 1 8.7572 13.8291)" class="st0 st1 st2">简</text>
</svg>